# xmcd
#
# Track frame offsets: 
#        150
#        21902
#        36954
#        58038
#        82853
#        111926
#        122754
#        147723
#        165016
#
# Disc length: 2462 seconds
#
# Revision: 0
# Processed by: cddbd v1.5.2PL0 Copyright (c) Steve Scherf et al.
# Submitted via: ExactAudioCopyFreeDBPlugin 1.0
#
DISCID=72099c09
DTITLE=Dean Harlem - Dean Harlem
DYEAR=2012
DGENRE=Country
TTITLE0=Travelin' On
TTITLE1=Blue Train
TTITLE2=Girl from the North Country
TTITLE3=If it wasn't for time
TTITLE4=New Mexico
TTITLE5=I promise to love you (if you promise to love me)
TTITLE6=Into the night
TTITLE7=Make me a pallet
TTITLE8=Song to my grandfather
EXTD=
EXTT0=
EXTT1=
EXTT2=
EXTT3=
EXTT4=
EXTT5=
EXTT6=
EXTT7=
EXTT8=
PLAYORDER=
